HIERARCHY
ROOT hip
{
  OFFSET 0 0 0
  CHANNELS 6 Xposition Yposition Zposition Zrotation Yrotation Xrotation
  JOINT abdomen
  {
    OFFSET 0 20.6881 -0.73152
    CHANNELS 3 Zrotation Xrotation Yrotation
    JOINT chest
    {
      OFFSET 0 11.7043 -0.48768
      CHANNELS 3 Zrotation Xrotation Yrotation
      JOINT neck
      {
        OFFSET 0 22.1894 -2.19456
        CHANNELS 3 Zrotation Xrotation Yrotation
        JOINT head
        {
          OFFSET -0.24384 7.07133 1.2192
          CHANNELS 3 Zrotation Xrotation Yrotation
          JOINT leftEye
          {
            OFFSET 4.14528 8.04674 8.04672
            CHANNELS 3 Zrotation Xrotation Yrotation
            End Site
            {
              OFFSET 1 0 0
            }
          }
          JOINT rightEye
          {
            OFFSET -3.6576 8.04674 8.04672
            CHANNELS 3 Zrotation Xrotation Yrotation
            End Site
            {
              OFFSET 1 0 0
            }
          }
        }
      }
      JOINT rCollar
      {
        OFFSET -2.68224 19.2634 -4.8768
        CHANNELS 3 Zrotation Xrotation Yrotation
        JOINT rShldr
        {
          OFFSET -8.77824 -1.95073 1.46304
          CHANNELS 3 Zrotation Xrotation Yrotation
          JOINT rForeArm
          {
            OFFSET -28.1742 -1.7115 0.48768
            CHANNELS 3 Zrotation Xrotation Yrotation
            JOINT rHand
            {
              OFFSET -22.5879 0.773209 7.07136
              CHANNELS 3 Zrotation Xrotation Yrotation
              JOINT rThumb1
              {
                OFFSET -1.2192 -0.487915 3.41376
                CHANNELS 3 Zrotation Xrotation Yrotation
                JOINT rThumb2
                {
                  OFFSET -3.37035 -0.52449 3.41376
                  CHANNELS 3 Zrotation Xrotation Yrotation
                  End Site
                  {
                    OFFSET -1.78271 -1.18214 1.43049
                  }
                }
              }
              JOINT rIndex1
              {
                OFFSET -7.75947 0.938293 5.60832
                CHANNELS 3 Zrotation Xrotation Yrotation
                JOINT rIndex2
                {
                  OFFSET -2.54057 -0.884171 1.56538
                  CHANNELS 3 Zrotation Xrotation Yrotation
                  End Site
                  {
                    OFFSET -1.62519 -0.234802 1.16502
                  }
                }
              }
              JOINT rMid1
              {
                OFFSET -8.24714 1.18213 3.41376
                CHANNELS 3 Zrotation Xrotation Yrotation
                JOINT rMid2
                {
                  OFFSET -3.10165 -0.590103 1.0647
                  CHANNELS 3 Zrotation Xrotation Yrotation
                  End Site
                  {
                    OFFSET -2.48547 -0.328903 0.83742
                  }
                }
              }
              JOINT rRing1
              {
                OFFSET -8.82822 0.546677 1.51678
                CHANNELS 3 Zrotation Xrotation Yrotation
                JOINT rRing2
                {
                  OFFSET -2.60934 -0.819778 -0.0198488
                  CHANNELS 3 Zrotation Xrotation Yrotation
                  End Site
                  {
                    OFFSET -2.33842 -0.294052 0.168128
                  }
                }
              }
              JOINT rPinky1
              {
                OFFSET -8.27202 -0.0477905 -0.4584
                CHANNELS 3 Zrotation Xrotation Yrotation
                JOINT rPinky2
                {
                  OFFSET -1.82734 -0.647385 -0.700984
                  CHANNELS 3 Zrotation Xrotation Yrotation
                  End Site
                  {
                    OFFSET -1.69225 -0.51767 -0.607171
                  }
                }
              }
            }
          }
        }
      }
      JOINT lCollar
      {
        OFFSET 2.68224 19.2634 -4.8768
        CHANNELS 3 Zrotation Xrotation Yrotation
        JOINT lShldr
        {
          OFFSET 8.77824 -1.95073 1.46304
          CHANNELS 3 Zrotation Xrotation Yrotation
          JOINT lForeArm
          {
            OFFSET 28.1742 -1.7115 0.48768
            CHANNELS 3 Zrotation Xrotation Yrotation
            JOINT lHand
            {
              OFFSET 22.5879 0.773209 7.07136
              CHANNELS 3 Zrotation Xrotation Yrotation
              JOINT lThumb1
              {
                OFFSET 1.2192 -0.487915 3.41376
                CHANNELS 3 Zrotation Xrotation Yrotation
                JOINT lThumb2
                {
                  OFFSET 3.37035 -0.52449 3.41376
                  CHANNELS 3 Zrotation Xrotation Yrotation
                  End Site
                  {
                    OFFSET 1.78271 -1.18214 1.43049
                  }
                }
              }
              JOINT lIndex1
              {
                OFFSET 7.75947 0.938293 5.60832
                CHANNELS 3 Zrotation Xrotation Yrotation
                JOINT lIndex2
                {
                  OFFSET 2.54057 -0.884171 1.56538
                  CHANNELS 3 Zrotation Xrotation Yrotation
                  End Site
                  {
                    OFFSET 1.62519 -0.234802 1.16502
                  }
                }
              }
              JOINT lMid1
              {
                OFFSET 8.24714 1.18213 3.41376
                CHANNELS 3 Zrotation Xrotation Yrotation
                JOINT lMid2
                {
                  OFFSET 3.10165 -0.590103 1.0647
                  CHANNELS 3 Zrotation Xrotation Yrotation
                  End Site
                  {
                    OFFSET 2.48547 -0.328903 0.83742
                  }
                }
              }
              JOINT lRing1
              {
                OFFSET 8.82822 0.546677 1.51678
                CHANNELS 3 Zrotation Xrotation Yrotation
                JOINT lRing2
                {
                  OFFSET 2.60934 -0.819778 -0.0198488
                  CHANNELS 3 Zrotation Xrotation Yrotation
                  End Site
                  {
                    OFFSET 2.33842 -0.294052 0.168128
                  }
                }
              }
              JOINT lPinky1
              {
                OFFSET 8.27202 -0.0477905 -0.4584
                CHANNELS 3 Zrotation Xrotation Yrotation
                JOINT lPinky2
                {
                  OFFSET 1.82734 -0.647385 -0.700984
                  CHANNELS 3 Zrotation Xrotation Yrotation
                  End Site
                  {
                    OFFSET 1.69225 -0.51767 -0.607171
                  }
                }
              }
            }
          }
        }
      }
    }
  }
  JOINT rButtock
  {
    OFFSET -8.77824 4.35084 1.2192
    CHANNELS 3 Zrotation Xrotation Yrotation
    JOINT rThigh
    {
      OFFSET 0 -1.70687 -2.19456
      CHANNELS 3 Zrotation Xrotation Yrotation
      JOINT rShin
      {
        OFFSET 0 -36.8199 0.73152
        CHANNELS 3 Zrotation Xrotation Yrotation
        JOINT rFoot
        {
          OFFSET 0.73152 -45.1104 -5.12064
          CHANNELS 3 Zrotation Xrotation Yrotation
          End Site
          {
            OFFSET -1.1221 -3.69964 12.103
          }
        }
      }
    }
  }
  JOINT lButtock
  {
    OFFSET 8.77824 4.35084 1.2192
    CHANNELS 3 Zrotation Xrotation Yrotation
    JOINT lThigh
    {
      OFFSET 0 -1.70687 -2.19456
      CHANNELS 3 Zrotation Xrotation Yrotation
      JOINT lShin
      {
        OFFSET 0 -36.8199 0.73152
        CHANNELS 3 Zrotation Xrotation Yrotation
        JOINT lFoot
        {
          OFFSET -0.73152 -45.1104 -5.12064
          CHANNELS 3 Zrotation Xrotation Yrotation
          End Site
          {
            OFFSET 1.1221 -3.69964 12.103
          }
        }
      }
    }
  }
}
MOTION
Frames:	4
Frame Time:	0.03333
0.0 0.0 0.0 0.0 0.0 0.0 0.0 0.0 0.0 0.0 0.0 0.0 0.0 0.0 0.0 0.0 0.0 0.0 0.0 0.0 0.0 0.0 0.0 0.0 0.0 0.0 0.0 0.0 0.0 0.0 0.0 0.0 0.0 0.0 0.0 0.0 0.0 0.0 0.0 0.0 0.0 0.0 0.0 0.0 0.0 0.0 0.0 0.0 0.0 0.0 0.0 0.0 0.0 0.0 0.0 0.0 0.0 0.0 0.0 0.0 0.0 0.0 0.0 0.0 0.0 0.0 0.0 0.0 0.0 0.0 0.0 0.0 0.0 0.0 0.0 0.0 0.0 0.0 0.0 0.0 0.0 0.0 0.0 0.0 0.0 0.0 0.0 0.0 0.0 0.0 0.0 0.0 0.0 0.0 0.0 0.0 0.0 0.0 0.0 0.0 0.0 0.0 0.0 0.0 0.0 0.0 0.0 0.0 0.0 0.0 0.0 0.0 0.0 0.0 0.0 0.0 0.0 0.0 0.0 0.0 0.0 0.0 0.0 0.0 0.0 0.0 0.0 0.0 0.0 0.0 0.0 0.0
-0.0045000000000000005 56.1548 -0.0233 170.751892 11.616969 -177.809584 -16.71826 6.680849 -87.466163 6.259762 3.776164 80.909584 -2.687038 18.641743 19.358736 -9.582937 -25.831875 -61.968817 0.005107 0.0 0.000743 -0.000566 -0.0 0.001517 -3.768157 17.920999 4.640976 -108.071349 13.836174 163.860318 178.020517 -8.63222 -140.218185 -10.704892 40.591124 3.482673 -80.965133 38.736254 44.499135 -1.060372 -14.181069 25.565338 -140.764196 1.379965 116.227479 -73.143714 57.220268 54.293449 173.124303 -66.297836 137.615531 -7.612609 26.107766 6.324042 -0.000587 -0.018684 -0.004681 9.23476 12.719351 1.66253 0.099229 0.258219 0.091261 14.560173 41.802426 8.482606 155.80972 -5.555408 -162.266737 86.211684 86.72743 -33.012492 113.218752 76.679357 -148.122289 3.368098 26.414853 -2.414083 103.199336 36.331527 -60.111776 132.237772 -17.442509 -74.513634 164.554645 -40.547507 -122.457631 154.997543 -7.300988 -119.035221 -7.903834 -24.807651 3.013521 3.311773 17.35324 -3.318436 0.000394 0.022581 -0.007249 -9.077289 14.186304 -1.883761 8.192657 -17.575396 7.730212 22.494644 -40.195116 23.598082 -179.990172 75.749148 -0.006724 153.144544 -0.073803 -90.101966 -87.261349 -6.687963 -79.993962 -90.020835 21.206596 -174.735513 -179.984553 75.750325 -0.010569 -92.022919 83.586204 -87.83647 3.339251 34.605306 68.826136 165.380327 -18.626222 28.520323
0.014899999999999998 56.1176 -0.0341 170.658022 11.697558 -177.894916 -19.187755 8.929405 -0.0 6.5491 -8.323089 -6.082301 -0.912571 19.482551 28.625205 -15.961128 -23.646972 -74.270792 -0.000192 -0.0 0.006266 0.005239 0.0 0.002605 3.205967 -26.010418 -5.105386 -119.371935 -3.752705 -160.52041 24.777561 28.115158 -84.455218 168.968076 -12.363171 145.663036 -103.199434 36.331025 60.111421 -125.744833 -14.867487 72.828384 -33.797077 34.485264 25.495254 -167.111552 -15.980023 111.324136 -0.220137 0.638336 0.123129 -11.388999 33.419759 9.073455 -145.097438 -1.605091 -178.623828 -157.189999 45.334885 175.554653 0.368481 0.970811 0.340946 -8.710616 -23.954108 -10.075593 3.767545 17.920984 -4.641434 -58.913208 30.942744 -30.455428 8.589005 -22.71123 -26.991835 3.121498 25.738351 -2.411199 -2.012786 -1.996523 0.275113 131.349812 -28.150523 -116.570157 83.733435 42.330215 -69.989591 -5.301192 1.247243 4.619935 -174.857309 -64.586006 -138.857401 42.520911 58.329139 -36.430538 69.296824 72.946266 -87.01724 -5.043033 28.344257 0.568207 146.206651 15.405056 142.73224 25.758704 -40.234816 27.021054 -0.0 -0.000106 -0.000672 -65.814212 -57.848102 13.130982 83.736418 25.812166 151.984505 72.411562 -33.613388 172.727636 -0.0 -0.000106 -0.000672 6.010726 11.833027 152.820592 24.830554 -25.840995 151.660447 -179.374828 48.233995 -91.71129
0.0312 56.0992 -0.041 170.737848 11.778208 -177.863521 -19.34906 8.898164 2.282002 6.353378 -8.610366 -8.918209 5.464158 24.594014 69.353981 -34.000282 -3.445526 -115.589949 0.002403 0.0 0.004302 -0.003267 -0.0 0.005111 -129.706681 55.102374 133.553285 -110.318423 29.27184 92.981062 -141.609617 14.071544 -158.117653 4.314122 -4.25453 2.425114 93.028661 -51.083971 40.500601 -161.815085 -27.841838 126.467002 -138.49349 4.896825 114.865586 -14.083531 35.252955 3.292673 -20.136578 39.008009 15.356735 166.078915 -65.602773 131.538848 -145.10105 -1.520773 -178.649473 2.776037 -43.845137 -17.910859 -1.600225 -4.015671 -1.485743 -21.315159 -39.035755 -22.171908 153.578843 7.463354 -159.320827 -127.864999 -8.857238 -168.235823 3.823953 -3.474704 -32.069582 4.880383 31.080228 -2.635683 78.030617 38.689717 -42.412566 146.025491 -30.85993 -83.109163 -37.216494 -57.917604 0.643526 156.766182 -14.891298 -113.663306 29.516441 47.608179 -23.796104 42.034271 58.515486 -36.244655 73.163313 -72.1423 90.198217 150.975912 -0.358351 -176.411676 -7.928723 24.811593 -7.002103 -22.918545 67.475591 -8.686725 -179.979352 75.750972 -0.015914 153.248592 -0.150045 -89.702337 -76.501552 -11.022874 49.233726 137.936919 6.37315 -38.804916 0.0 0.00036 -0.000557 5.643926 12.156606 131.61665 29.996738 -28.585 -21.339184 -170.996598 6.933173 55.385528
